<?plantuml 1.2026.1?><svg xmlns="http://www.w3.org/2000/svg" xmlns:xlink="http://www.w3.org/1999/xlink" contentStyleType="text/css" data-diagram-type="ACTIVITY" height="1703px" preserveAspectRatio="none" style="width:2166px;height:1703px;background:#FAFAFA;" version="1.1" viewBox="0 0 2166 1703" width="2166px" zoomAndPan="magnify"><title>libspec &#8212; Spec Diff Swim-lane
(libspec diff / spec_diff.generate_native_patch)</title><defs/><g><rect fill="#FAFAFA" height="1703" style="stroke:none;stroke-width:1;" width="2166" x="0" y="0"/><g class="title" data-source-line="1"><text fill="#000000" font-family="sans-serif" font-size="14" font-weight="bold" lengthAdjust="spacing" textLength="237.6855" x="963.0754" y="32.9951">libspec &#8212; Spec Diff Swim-lane</text><text fill="#000000" font-family="sans-serif" font-size="14" font-weight="bold" lengthAdjust="spacing" textLength="370.2412" x="896.7976" y="49.292">(libspec diff / spec_diff.generate_native_patch)</text></g><rect fill="none" height="20.9531" style="stroke:none;stroke-width:1;" width="2133.8364" x="15" y="66.3389"/><rect fill="#E8F5E9" height="1625.5015" style="stroke:#E8F5E9;stroke-width:1;" width="206.6602" x="15" y="66.3389"/><ellipse cx="119.3301" cy="102.292" fill="#16A34A" rx="10" ry="10" style="stroke:#222222;stroke-width:1;"/><rect fill="#F0FDF4" height="47.9375" rx="12.5" ry="12.5" style="stroke:#16A34A;stroke-width:0.5;" width="171.2129" x="33.7236" y="132.292"/><text fill="#000000" font-family="Helvetica" font-size="12" lengthAdjust="spacing" textLength="23.5488" x="43.7236" y="153.4307">Run</text><text fill="#000000" font-family="Helvetica" font-size="12" font-weight="bold" lengthAdjust="spacing" textLength="123.8496" x="71.0869" y="153.4307">libspec diff [A] [B]</text><text fill="#000000" font-family="Helvetica" font-size="12" lengthAdjust="spacing" textLength="66.4922" x="43.7236" y="167.3994">or call MCP</text><text fill="#000000" font-family="Helvetica" font-size="12" font-weight="bold" lengthAdjust="spacing" textLength="23.1445" x="114.0303" y="167.3994">diff</text><text fill="#000000" font-family="Helvetica" font-size="12" lengthAdjust="spacing" textLength="22.7227" x="140.9893" y="167.3994">tool</text><rect fill="#F0FDF4" height="47.9375" rx="12.5" ry="12.5" style="stroke:#16A34A;stroke-width:0.5;" width="196.6602" x="21" y="1601.9028"/><text fill="#000000" font-family="Helvetica" font-size="12" lengthAdjust="spacing" textLength="107.6895" x="31" y="1623.0415">Review spec drift;</text><text fill="#000000" font-family="Helvetica" font-size="12" lengthAdjust="spacing" textLength="176.6602" x="31" y="1637.0103">Proceed with implementation</text><ellipse cx="119.3301" cy="1680.8403" fill="none" rx="11" ry="11" style="stroke:#222222;stroke-width:1;"/><ellipse cx="119.3301" cy="1680.8403" fill="#222222" rx="6" ry="6" style="stroke:#222222;stroke-width:1;"/><line style="stroke:#000000;stroke-width:1.5;" x1="15" x2="15" y1="66.3389" y2="1691.8403"/><rect fill="#EEF2FF" height="1625.5015" style="stroke:#EEF2FF;stroke-width:1;" width="311.9746" x="221.6602" y="66.3389"/><rect fill="#F0FDF4" height="33.9688" rx="12.5" ry="12.5" style="stroke:#16A34A;stroke-width:0.5;" width="215.8789" x="270.708" y="200.2295"/><text fill="#000000" font-family="Helvetica" font-size="12" lengthAdjust="spacing" textLength="195.8789" x="280.708" y="221.3682">Validate .libspec/ project marker</text><rect fill="#F0FDF4" height="33.9688" rx="12.5" ry="12.5" style="stroke:#16A34A;stroke-width:0.5;" width="260.1348" x="248.5801" y="254.1982"/><text fill="#000000" font-family="Helvetica" font-size="12" lengthAdjust="spacing" textLength="22.4004" x="258.5801" y="275.3369">Call</text><text fill="#000000" font-family="Helvetica" font-size="12" font-weight="bold" lengthAdjust="spacing" textLength="153.832" x="284.7949" y="275.3369">generate_native_patch</text><text fill="#000000" font-family="Helvetica" font-size="12" lengthAdjust="spacing" textLength="60.0879" x="438.627" y="275.3369">(old, new)</text><rect fill="#F0FDF4" height="61.9063" rx="12.5" ry="12.5" style="stroke:#16A34A;stroke-width:0.5;" width="221.7266" x="267.7842" y="1519.9966"/><text fill="#000000" font-family="Helvetica" font-size="12" lengthAdjust="spacing" textLength="157.7402" x="277.7842" y="1541.1353">Print / return patch output</text><text fill="#000000" font-family="Helvetica" font-size="12" lengthAdjust="spacing" textLength="201.7266" x="277.7842" y="1555.104">([NEW], [REMOVED], [CHANGED],</text><text fill="#000000" font-family="Helvetica" font-size="12" lengthAdjust="spacing" textLength="170.2266" x="277.7842" y="1569.0728">[WARNING] unresolved refs)</text><line style="stroke:#000000;stroke-width:1.5;" x1="221.6602" x2="221.6602" y1="66.3389" y2="1691.8403"/><rect fill="#F0FDF4" height="1625.5015" style="stroke:#F0FDF4;stroke-width:1;" width="805.7095" x="533.6348" y="66.3389"/><rect fill="#F0FDF4" height="47.9375" rx="12.5" ry="12.5" style="stroke:#16A34A;stroke-width:0.5;" width="153.4414" x="842.2688" y="308.167"/><text fill="#000000" font-family="Helvetica" font-size="12" lengthAdjust="spacing" textLength="117.1113" x="852.2688" y="329.3057">Resolve diff targets</text><text fill="#000000" font-family="Helvetica" font-size="12" lengthAdjust="spacing" textLength="133.4414" x="852.2688" y="343.2744">(_resolve_diff_targets)</text><polygon fill="#F0FDF4" points="780.3857,376.1045,828.6558,376.1045,840.6558,388.1045,828.6558,400.1045,780.3857,400.1045,768.3857,388.1045,780.3857,376.1045" style="stroke:#16A34A;stroke-width:0.5;"/><text fill="#000000" font-family="sans-serif" font-size="11" lengthAdjust="spacing" textLength="19.0083" x="808.5208" y="410.3149">yes</text><text fill="#000000" font-family="Helvetica" font-size="11" lengthAdjust="spacing" textLength="48.27" x="780.3857" y="391.9126">No args?</text><rect fill="#F0FDF4" height="47.9375" rx="12.5" ry="12.5" style="stroke:#16A34A;stroke-width:0.5;" width="160.1035" x="724.469" y="431.8149"/><text fill="#000000" font-family="Helvetica" font-size="12" lengthAdjust="spacing" textLength="132.4277" x="734.469" y="452.9536">old_commit = "HEAD"</text><text fill="#000000" font-family="Helvetica" font-size="12" lengthAdjust="spacing" textLength="140.1035" x="734.469" y="466.9224">is_new_pending = True</text><polygon fill="#F0FDF4" points="959.0522,376.1045,1009.0303,376.1045,1021.0303,388.1045,1009.0303,400.1045,959.0522,400.1045,947.0522,388.1045,959.0522,376.1045" style="stroke:#16A34A;stroke-width:0.5;"/><text fill="#000000" font-family="sans-serif" font-size="11" lengthAdjust="spacing" textLength="19.0083" x="988.0413" y="410.3149">yes</text><text fill="#000000" font-family="Helvetica" font-size="11" lengthAdjust="spacing" textLength="49.978" x="959.0522" y="391.9126">One arg?</text><rect fill="#F0FDF4" height="33.9688" rx="12.5" ry="12.5" style="stroke:#16A34A;stroke-width:0.5;" width="158.9375" x="904.5725" y="431.8149"/><text fill="#000000" font-family="Helvetica" font-size="12" lengthAdjust="spacing" textLength="138.9375" x="914.5725" y="452.9536">new_commit = "HEAD"</text><rect fill="#F0FDF4" height="47.9375" rx="12.5" ry="12.5" style="stroke:#16A34A;stroke-width:0.5;" width="179.3398" x="829.3196" y="873.2329"/><text fill="#000000" font-family="Helvetica" font-size="12" lengthAdjust="spacing" textLength="159.3398" x="839.3196" y="894.3716">Build old_map &amp; new_map</text><text fill="#000000" font-family="Helvetica" font-size="12" lengthAdjust="spacing" textLength="119.1621" x="839.3196" y="908.3403">{ref &#8594; Component}</text><rect fill="#F0FDF4" height="33.9688" rx="12.5" ry="12.5" style="stroke:#16A34A;stroke-width:0.5;" width="219.4063" x="809.2864" y="941.1704"/><text fill="#000000" font-family="Helvetica" font-size="12" lengthAdjust="spacing" textLength="199.4063" x="819.2864" y="962.3091">Compute all_refs = union of keys</text><rect fill="#F0FDF4" height="33.9688" rx="12.5" ry="12.5" style="stroke:#16A34A;stroke-width:0.5;" width="99.9805" x="868.9993" y="1039.1392"/><text fill="#000000" font-family="Helvetica" font-size="12" lengthAdjust="spacing" textLength="79.9805" x="878.9993" y="1060.2778">Take next ref</text><polygon fill="#F0FDF4" points="577.2102,1093.1079,646.073,1093.1079,658.073,1105.1079,646.073,1117.1079,577.2102,1117.1079,565.2102,1105.1079,577.2102,1093.1079" style="stroke:#16A34A;stroke-width:0.5;"/><text fill="#000000" font-family="sans-serif" font-size="11" lengthAdjust="spacing" textLength="19.0083" x="615.6416" y="1127.3184">yes</text><text fill="#000000" font-family="Helvetica" font-size="11" lengthAdjust="spacing" textLength="68.8628" x="577.2102" y="1108.916">only in new?</text><rect fill="#F0FDF4" height="33.9688" rx="12.5" ry="12.5" style="stroke:#16A34A;stroke-width:0.5;" width="144.0137" x="539.6348" y="1149.9126"/><text fill="#000000" font-family="Helvetica" font-size="12" lengthAdjust="spacing" textLength="42.2109" x="549.6348" y="1171.0513">Record</text><text fill="#000000" font-family="Helvetica" font-size="12" font-weight="bold" lengthAdjust="spacing" textLength="42.4453" x="595.6602" y="1171.0513">[NEW]</text><text fill="#000000" font-family="Helvetica" font-size="12" lengthAdjust="spacing" textLength="31.7285" x="641.9199" y="1171.0513">entry</text><polygon fill="#F0FDF4" points="751.9819,1093.1079,814.8774,1093.1079,826.8774,1105.1079,814.8774,1117.1079,751.9819,1117.1079,739.9819,1105.1079,751.9819,1093.1079" style="stroke:#16A34A;stroke-width:0.5;"/><text fill="#000000" font-family="sans-serif" font-size="11" lengthAdjust="spacing" textLength="19.0083" x="787.4297" y="1127.3184">yes</text><text fill="#000000" font-family="Helvetica" font-size="11" lengthAdjust="spacing" textLength="62.8955" x="751.9819" y="1108.916">only in old?</text><text fill="#000000" font-family="sans-serif" font-size="11" lengthAdjust="spacing" textLength="53.3027" x="826.8774" y="1102.5137">changed?</text><rect fill="#F0FDF4" height="33.9688" rx="12.5" ry="12.5" style="stroke:#16A34A;stroke-width:0.5;" width="179.5625" x="693.6484" y="1149.9126"/><text fill="#000000" font-family="Helvetica" font-size="12" lengthAdjust="spacing" textLength="42.2109" x="703.6484" y="1171.0513">Record</text><text fill="#000000" font-family="Helvetica" font-size="12" font-weight="bold" lengthAdjust="spacing" textLength="77.9941" x="749.6738" y="1171.0513">[REMOVED]</text><text fill="#000000" font-family="Helvetica" font-size="12" lengthAdjust="spacing" textLength="31.7285" x="831.4824" y="1171.0513">entry</text><path d="M1126.1836,1132.3091 L1126.1836,1163.5747 L1106.1836,1167.5747 L1126.1836,1171.5747 L1126.1836,1202.8403 A0,0 0 0 0 1126.1836,1202.8403 L1308.3442,1202.8403 A0,0 0 0 0 1308.3442,1202.8403 L1308.3442,1142.3091 L1298.3442,1132.3091 L1126.1836,1132.3091 A0,0 0 0 0 1126.1836,1132.3091" fill="#FFFDE7" style="stroke:#F59E0B;stroke-width:0.5;"/><path d="M1298.3442,1132.3091 L1298.3442,1142.3091 L1308.3442,1142.3091 L1298.3442,1132.3091" fill="#FFFDE7" style="stroke:#F59E0B;stroke-width:0.5;"/><text fill="#000000" font-family="sans-serif" font-size="13" lengthAdjust="spacing" textLength="70.4082" x="1132.1836" y="1149.376">Compares:</text><text fill="#000000" font-family="sans-serif" font-size="13" lengthAdjust="spacing" textLength="161.1606" x="1132.1836" y="1164.5088">1. docstring (unified diff)</text><text fill="#000000" font-family="sans-serif" font-size="13" lengthAdjust="spacing" textLength="88.6768" x="1132.1836" y="1179.6416">2. inherits list</text><text fill="#000000" font-family="sans-serif" font-size="13" lengthAdjust="spacing" textLength="155.6382" x="1132.1836" y="1194.7744">3. recursive parent diffs</text><rect fill="#F0FDF4" height="47.9375" rx="12.5" ry="12.5" style="stroke:#16A34A;stroke-width:0.5;" width="212.9727" x="893.2109" y="1143.606"/><text fill="#000000" font-family="Helvetica" font-size="12" lengthAdjust="spacing" textLength="192.9727" x="903.2109" y="1164.7446">_compare_components_natively</text><text fill="#000000" font-family="Helvetica" font-size="12" lengthAdjust="spacing" textLength="143.7949" x="903.2109" y="1178.7134">(old, new, maps, cache)</text><rect fill="#F0FDF4" height="47.9375" rx="12.5" ry="12.5" style="stroke:#16A34A;stroke-width:0.5;" width="178.7246" x="910.335" y="1276.1216"/><text fill="#000000" font-family="Helvetica" font-size="12" lengthAdjust="spacing" textLength="42.2109" x="920.335" y="1297.2603">Record</text><text fill="#000000" font-family="Helvetica" font-size="12" font-weight="bold" lengthAdjust="spacing" textLength="77.1563" x="966.3604" y="1297.2603">[CHANGED]</text><text fill="#000000" font-family="Helvetica" font-size="12" lengthAdjust="spacing" textLength="31.7285" x="1047.3311" y="1297.2603">entry</text><text fill="#000000" font-family="Helvetica" font-size="12" lengthAdjust="spacing" textLength="132.416" x="920.335" y="1311.229">with change detail list</text><polygon fill="#F0FDF4" points="964.4199,1227.7192,1034.9746,1227.7192,1046.9746,1239.7192,1034.9746,1251.7192,964.4199,1251.7192,952.4199,1239.7192,964.4199,1227.7192" style="stroke:#16A34A;stroke-width:0.5;"/><text fill="#000000" font-family="sans-serif" font-size="11" lengthAdjust="spacing" textLength="19.0083" x="1003.6973" y="1261.9297">yes</text><text fill="#000000" font-family="Helvetica" font-size="11" lengthAdjust="spacing" textLength="70.5547" x="964.4199" y="1243.5273">hash differs?</text><polygon fill="#F0FDF4" points="999.6973,1344.0591,1011.6973,1356.0591,999.6973,1368.0591,987.6973,1356.0591,999.6973,1344.0591" style="stroke:#16A34A;stroke-width:0.5;"/><polygon fill="#F0FDF4" points="918.9895,995.1392,930.9895,1007.1392,918.9895,1019.1392,906.9895,1007.1392,918.9895,995.1392" style="stroke:#16A34A;stroke-width:0.5;"/><polygon fill="#F0FDF4" points="889.5076,1408.0591,948.4714,1408.0591,960.4714,1420.0591,948.4714,1432.0591,889.5076,1432.0591,877.5076,1420.0591,889.5076,1408.0591" style="stroke:#16A34A;stroke-width:0.5;"/><text fill="#000000" font-family="Helvetica" font-size="11" lengthAdjust="spacing" textLength="58.9639" x="889.5076" y="1423.8672">more refs?</text><text fill="#000000" font-family="sans-serif" font-size="11" lengthAdjust="spacing" textLength="19.0083" x="960.4714" y="1417.4648">yes</text><rect fill="#F0FDF4" height="47.9375" rx="12.5" ry="12.5" style="stroke:#16A34A;stroke-width:0.5;" width="220.1387" x="808.9202" y="1452.0591"/><text fill="#000000" font-family="Helvetica" font-size="12" lengthAdjust="spacing" textLength="200.1387" x="818.9202" y="1473.1978">Collect unresolved_inherited_refs</text><text fill="#000000" font-family="Helvetica" font-size="12" lengthAdjust="spacing" textLength="195.375" x="818.9202" y="1487.1665">(refs in inherits not in new_map)</text><line style="stroke:#000000;stroke-width:1.5;" x1="533.6348" x2="533.6348" y1="66.3389" y2="1691.8403"/><rect fill="#FFF3E0" height="1625.5015" style="stroke:#FFF3E0;stroke-width:1;" width="496.4614" x="1339.3442" y="66.3389"/><polygon fill="#F0FDF4" points="1485.2896,519.7524,1549.0337,519.7524,1561.0337,531.7524,1549.0337,543.7524,1485.2896,543.7524,1473.2896,531.7524,1485.2896,519.7524" style="stroke:#16A34A;stroke-width:0.5;"/><text fill="#000000" font-family="Helvetica" font-size="11" lengthAdjust="spacing" textLength="63.7441" x="1485.2896" y="535.5605">new is live?</text><text fill="#000000" font-family="sans-serif" font-size="11" lengthAdjust="spacing" textLength="19.0083" x="1454.2813" y="529.1582">yes</text><text fill="#000000" font-family="sans-serif" font-size="11" lengthAdjust="spacing" textLength="13.7017" x="1561.0337" y="529.1582">no</text><rect fill="#F0FDF4" height="47.9375" rx="12.5" ry="12.5" style="stroke:#16A34A;stroke-width:0.5;" width="138.8105" x="1345.3442" y="563.7524"/><text fill="#000000" font-family="Helvetica" font-size="12" lengthAdjust="spacing" textLength="117.6621" x="1355.3442" y="584.8911">compile_live_spec()</text><text fill="#000000" font-family="Helvetica" font-size="12" lengthAdjust="spacing" textLength="118.8105" x="1355.3442" y="598.8599">&#8594; new_components</text><rect fill="#F0FDF4" height="47.9375" rx="12.5" ry="12.5" style="stroke:#16A34A;stroke-width:0.5;" width="177.5586" x="1530.7944" y="631.6899"/><text fill="#000000" font-family="Helvetica" font-size="12" lengthAdjust="spacing" textLength="157.5586" x="1540.7944" y="652.8286">compile_live_spec(tmpdir)</text><text fill="#000000" font-family="Helvetica" font-size="12" lengthAdjust="spacing" textLength="118.8105" x="1540.7944" y="666.7974">&#8594; new_components</text><polygon fill="#F0FDF4" points="1517.1616,689.6274,1529.1616,701.6274,1517.1616,713.6274,1505.1616,701.6274,1517.1616,689.6274" style="stroke:#16A34A;stroke-width:0.5;"/><path d="M1638.0698,797.8345 L1638.0698,821.5337 L1618.0698,825.5337 L1638.0698,829.5337 L1638.0698,853.2329 A0,0 0 0 0 1638.0698,853.2329 L1830.8057,853.2329 A0,0 0 0 0 1830.8057,853.2329 L1830.8057,807.8345 L1820.8057,797.8345 L1638.0698,797.8345 A0,0 0 0 0 1638.0698,797.8345" fill="#FFFDE7" style="stroke:#F59E0B;stroke-width:0.5;"/><path d="M1820.8057,797.8345 L1820.8057,807.8345 L1830.8057,807.8345 L1820.8057,797.8345" fill="#FFFDE7" style="stroke:#F59E0B;stroke-width:0.5;"/><text fill="#000000" font-family="sans-serif" font-size="13" lengthAdjust="spacing" textLength="166.8481" x="1644.0698" y="814.9014">Git archive extracts spec/</text><text fill="#000000" font-family="sans-serif" font-size="13" lengthAdjust="spacing" textLength="161.5796" x="1644.0698" y="830.0342">into a temp dir; compiler</text><text fill="#000000" font-family="sans-serif" font-size="13" lengthAdjust="spacing" textLength="171.7358" x="1644.0698" y="845.167">runs there then cleans up.</text><rect fill="#F0FDF4" height="47.9375" rx="12.5" ry="12.5" style="stroke:#16A34A;stroke-width:0.5;" width="201.8164" x="1416.2534" y="801.5649"/><text fill="#000000" font-family="Helvetica" font-size="12" lengthAdjust="spacing" textLength="181.8164" x="1426.2534" y="822.7036">compile_git_spec(old_commit)</text><text fill="#000000" font-family="Helvetica" font-size="12" lengthAdjust="spacing" textLength="112.3008" x="1426.2534" y="836.6724">&#8594; old_components</text><line style="stroke:#000000;stroke-width:1.5;" x1="1339.3442" x2="1339.3442" y1="66.3389" y2="1691.8403"/><rect fill="#F3E5F5" height="1625.5015" style="stroke:#F3E5F5;stroke-width:1;" width="311.1699" x="1835.8057" y="66.3389"/><rect fill="#F0FDF4" height="47.9375" rx="12.5" ry="12.5" style="stroke:#16A34A;stroke-width:0.5;" width="230.8379" x="1912.1377" y="563.7524"/><text fill="#000000" font-family="Helvetica" font-size="12" lengthAdjust="spacing" textLength="210.8379" x="1922.1377" y="584.8911">git archive --format=tar {ref} spec</text><text fill="#000000" font-family="Helvetica" font-size="12" lengthAdjust="spacing" textLength="96.3867" x="1922.1377" y="598.8599">| tar -xC /tmp/&#8230;</text><rect fill="#F0FDF4" height="47.9375" rx="12.5" ry="12.5" style="stroke:#16A34A;stroke-width:0.5;" width="166.6777" x="1841.8057" y="733.6274"/><text fill="#000000" font-family="Helvetica" font-size="12" lengthAdjust="spacing" textLength="38.8711" x="1851.8057" y="754.7661">git diff</text><text fill="#000000" font-family="Helvetica" font-size="12" lengthAdjust="spacing" text-decoration="line-through" textLength="68.5137" x="1894.4912" y="754.7661">quiet HEAD</text><text fill="#000000" font-family="Helvetica" font-size="12" lengthAdjust="spacing" textLength="27.8496" x="1970.6338" y="754.7661">spec</text><text fill="#000000" font-family="Helvetica" font-size="12" lengthAdjust="spacing" textLength="142.6289" x="1851.8057" y="768.7349">(check if live == HEAD)</text><line style="stroke:#000000;stroke-width:1.5;" x1="1835.8057" x2="1835.8057" y1="66.3389" y2="1691.8403"/><line style="stroke:#000000;stroke-width:1.5;" x1="2146.9756" x2="2146.9756" y1="66.3389" y2="1691.8403"/><line style="stroke:#16A34A;stroke-width:1;" x1="119.3301" x2="119.3301" y1="112.292" y2="132.292"/><polygon fill="#16A34A" points="115.3301,122.292,119.3301,132.292,123.3301,122.292,119.3301,126.292" style="stroke:#16A34A;stroke-width:1;"/><line style="stroke:#16A34A;stroke-width:1;" x1="119.3301" x2="119.3301" y1="1649.8403" y2="1669.8403"/><polygon fill="#16A34A" points="115.3301,1659.8403,119.3301,1669.8403,123.3301,1659.8403,119.3301,1663.8403" style="stroke:#16A34A;stroke-width:1;"/><line style="stroke:#16A34A;stroke-width:1;" x1="378.6475" x2="378.6475" y1="234.1982" y2="254.1982"/><polygon fill="#16A34A" points="374.6475,244.1982,378.6475,254.1982,382.6475,244.1982,378.6475,248.1982" style="stroke:#16A34A;stroke-width:1;"/><line style="stroke:#16A34A;stroke-width:1;" x1="804.5208" x2="804.5208" y1="400.1045" y2="431.8149"/><polygon fill="#16A34A" points="800.5208,421.8149,804.5208,431.8149,808.5208,421.8149,804.5208,425.8149" style="stroke:#16A34A;stroke-width:1;"/><line style="stroke:#16A34A;stroke-width:1;" x1="804.5208" x2="804.5208" y1="479.7524" y2="499.7524"/><polygon fill="#16A34A" points="800.5208,489.7524,804.5208,499.7524,808.5208,489.7524,804.5208,493.7524" style="stroke:#16A34A;stroke-width:1;"/><line style="stroke:#16A34A;stroke-width:1;" x1="984.0413" x2="984.0413" y1="400.1045" y2="431.8149"/><polygon fill="#16A34A" points="980.0413,421.8149,984.0413,431.8149,988.0413,421.8149,984.0413,425.8149" style="stroke:#16A34A;stroke-width:1;"/><line style="stroke:#16A34A;stroke-width:1;" x1="984.0413" x2="984.0413" y1="465.7837" y2="499.7524"/><polygon fill="#16A34A" points="980.0413,489.7524,984.0413,499.7524,988.0413,489.7524,984.0413,493.7524" style="stroke:#16A34A;stroke-width:1;"/><line style="stroke:#16A34A;stroke-width:1;" x1="840.6558" x2="947.0522" y1="388.1045" y2="388.1045"/><polygon fill="#16A34A" points="937.0522,384.1045,947.0522,388.1045,937.0522,392.1045,941.0522,388.1045" style="stroke:#16A34A;stroke-width:1;"/><line style="stroke:#16A34A;stroke-width:1;" x1="918.9895" x2="918.9895" y1="356.1045" y2="361.1045"/><line style="stroke:#16A34A;stroke-width:1;" x1="918.9895" x2="804.5208" y1="361.1045" y2="361.1045"/><line style="stroke:#16A34A;stroke-width:1;" x1="804.5208" x2="804.5208" y1="361.1045" y2="376.1045"/><polygon fill="#16A34A" points="800.5208,366.1045,804.5208,376.1045,808.5208,366.1045,804.5208,370.1045" style="stroke:#16A34A;stroke-width:1;"/><line style="stroke:#16A34A;stroke-width:1;" x1="1021.0303" x2="1098.51" y1="388.1045" y2="388.1045"/><line style="stroke:#16A34A;stroke-width:1;" x1="1098.51" x2="1098.51" y1="388.1045" y2="499.7524"/><polygon fill="#16A34A" points="1094.51,489.7524,1098.51,499.7524,1102.51,489.7524,1098.51,493.7524" style="stroke:#16A34A;stroke-width:1;"/><line style="stroke:#16A34A;stroke-width:1;" x1="804.5208" x2="1098.51" y1="499.7524" y2="499.7524"/><line style="stroke:#16A34A;stroke-width:1;" x1="918.9895" x2="918.9895" y1="921.1704" y2="941.1704"/><polygon fill="#16A34A" points="914.9895,931.1704,918.9895,941.1704,922.9895,931.1704,918.9895,935.1704" style="stroke:#16A34A;stroke-width:1;"/><line style="stroke:#16A34A;stroke-width:1;" x1="999.6973" x2="999.6973" y1="1251.7192" y2="1276.1216"/><polygon fill="#16A34A" points="995.6973,1266.1216,999.6973,1276.1216,1003.6973,1266.1216,999.6973,1270.1216" style="stroke:#16A34A;stroke-width:1;"/><line style="stroke:#16A34A;stroke-width:1;" x1="1046.9746" x2="1099.0596" y1="1239.7192" y2="1239.7192"/><polygon fill="#16A34A" points="1095.0596,1290.0903,1099.0596,1300.0903,1103.0596,1290.0903,1099.0596,1294.0903" style="stroke:#16A34A;stroke-width:1;"/><line style="stroke:#16A34A;stroke-width:1;" x1="1099.0596" x2="1099.0596" y1="1239.7192" y2="1356.0591"/><line style="stroke:#16A34A;stroke-width:1;" x1="1099.0596" x2="1011.6973" y1="1356.0591" y2="1356.0591"/><polygon fill="#16A34A" points="1021.6973,1352.0591,1011.6973,1356.0591,1021.6973,1360.0591,1017.6973,1356.0591" style="stroke:#16A34A;stroke-width:1;"/><line style="stroke:#16A34A;stroke-width:1;" x1="999.6973" x2="999.6973" y1="1324.0591" y2="1344.0591"/><polygon fill="#16A34A" points="995.6973,1334.0591,999.6973,1344.0591,1003.6973,1334.0591,999.6973,1338.0591" style="stroke:#16A34A;stroke-width:1;"/><line style="stroke:#16A34A;stroke-width:1;" x1="999.6973" x2="999.6973" y1="1191.5435" y2="1227.7192"/><polygon fill="#16A34A" points="995.6973,1217.7192,999.6973,1227.7192,1003.6973,1217.7192,999.6973,1221.7192" style="stroke:#16A34A;stroke-width:1;"/><line style="stroke:#16A34A;stroke-width:1;" x1="611.6416" x2="611.6416" y1="1117.1079" y2="1149.9126"/><polygon fill="#16A34A" points="607.6416,1139.9126,611.6416,1149.9126,615.6416,1139.9126,611.6416,1143.9126" style="stroke:#16A34A;stroke-width:1;"/><line style="stroke:#16A34A;stroke-width:1;" x1="611.6416" x2="611.6416" y1="1183.8813" y2="1388.0591"/><polygon fill="#16A34A" points="607.6416,1378.0591,611.6416,1388.0591,615.6416,1378.0591,611.6416,1382.0591" style="stroke:#16A34A;stroke-width:1;"/><line style="stroke:#16A34A;stroke-width:1;" x1="783.4297" x2="783.4297" y1="1117.1079" y2="1149.9126"/><polygon fill="#16A34A" points="779.4297,1139.9126,783.4297,1149.9126,787.4297,1139.9126,783.4297,1143.9126" style="stroke:#16A34A;stroke-width:1;"/><line style="stroke:#16A34A;stroke-width:1;" x1="783.4297" x2="783.4297" y1="1183.8813" y2="1388.0591"/><polygon fill="#16A34A" points="779.4297,1378.0591,783.4297,1388.0591,787.4297,1378.0591,783.4297,1382.0591" style="stroke:#16A34A;stroke-width:1;"/><line style="stroke:#16A34A;stroke-width:1;" x1="658.073" x2="739.9819" y1="1105.1079" y2="1105.1079"/><polygon fill="#16A34A" points="729.9819,1101.1079,739.9819,1105.1079,729.9819,1109.1079,733.9819,1105.1079" style="stroke:#16A34A;stroke-width:1;"/><line style="stroke:#16A34A;stroke-width:1;" x1="918.9895" x2="918.9895" y1="1073.1079" y2="1078.1079"/><line style="stroke:#16A34A;stroke-width:1;" x1="918.9895" x2="611.6416" y1="1078.1079" y2="1078.1079"/><line style="stroke:#16A34A;stroke-width:1;" x1="611.6416" x2="611.6416" y1="1078.1079" y2="1093.1079"/><polygon fill="#16A34A" points="607.6416,1083.1079,611.6416,1093.1079,615.6416,1083.1079,611.6416,1087.1079" style="stroke:#16A34A;stroke-width:1;"/><line style="stroke:#16A34A;stroke-width:1;" x1="826.8774" x2="999.6973" y1="1105.1079" y2="1105.1079"/><line style="stroke:#16A34A;stroke-width:1;" x1="999.6973" x2="999.6973" y1="1105.1079" y2="1143.606"/><polygon fill="#16A34A" points="995.6973,1133.606,999.6973,1143.606,1003.6973,1133.606,999.6973,1137.606" style="stroke:#16A34A;stroke-width:1;"/><line style="stroke:#16A34A;stroke-width:1;" x1="999.6973" x2="999.6973" y1="1368.0591" y2="1388.0591"/><polygon fill="#16A34A" points="995.6973,1378.0591,999.6973,1388.0591,1003.6973,1378.0591,999.6973,1382.0591" style="stroke:#16A34A;stroke-width:1;"/><line style="stroke:#16A34A;stroke-width:1;" x1="611.6416" x2="999.6973" y1="1388.0591" y2="1388.0591"/><line style="stroke:#16A34A;stroke-width:1;" x1="918.9895" x2="918.9895" y1="1019.1392" y2="1039.1392"/><polygon fill="#16A34A" points="914.9895,1029.1392,918.9895,1039.1392,922.9895,1029.1392,918.9895,1033.1392" style="stroke:#16A34A;stroke-width:1;"/><line style="stroke:#16A34A;stroke-width:1;" x1="960.4714" x2="1320.3442" y1="1420.0591" y2="1420.0591"/><polygon fill="#16A34A" points="1316.3442,1222.8403,1320.3442,1212.8403,1324.3442,1222.8403,1320.3442,1218.8403" style="stroke:#16A34A;stroke-width:1;"/><line style="stroke:#16A34A;stroke-width:1;" x1="1320.3442" x2="1320.3442" y1="1007.1392" y2="1420.0591"/><line style="stroke:#16A34A;stroke-width:1;" x1="1320.3442" x2="930.9895" y1="1007.1392" y2="1007.1392"/><polygon fill="#16A34A" points="940.9895,1003.1392,930.9895,1007.1392,940.9895,1011.1392,936.9895,1007.1392" style="stroke:#16A34A;stroke-width:1;"/><line style="stroke:#16A34A;stroke-width:1;" x1="918.9895" x2="918.9895" y1="1388.0591" y2="1408.0591"/><polygon fill="#16A34A" points="914.9895,1398.0591,918.9895,1408.0591,922.9895,1398.0591,918.9895,1402.0591" style="stroke:#16A34A;stroke-width:1;"/><line style="stroke:#16A34A;stroke-width:1;" x1="918.9895" x2="918.9895" y1="975.1392" y2="995.1392"/><polygon fill="#16A34A" points="914.9895,985.1392,918.9895,995.1392,922.9895,985.1392,918.9895,989.1392" style="stroke:#16A34A;stroke-width:1;"/><line style="stroke:#16A34A;stroke-width:1;" x1="918.9895" x2="918.9895" y1="1432.0591" y2="1452.0591"/><polygon fill="#16A34A" points="914.9895,1442.0591,918.9895,1452.0591,922.9895,1442.0591,918.9895,1446.0591" style="stroke:#16A34A;stroke-width:1;"/><line style="stroke:#16A34A;stroke-width:1;" x1="1473.2896" x2="1414.7495" y1="531.7524" y2="531.7524"/><line style="stroke:#16A34A;stroke-width:1;" x1="1414.7495" x2="1414.7495" y1="531.7524" y2="563.7524"/><polygon fill="#16A34A" points="1410.7495,553.7524,1414.7495,563.7524,1418.7495,553.7524,1414.7495,557.7524" style="stroke:#16A34A;stroke-width:1;"/><line style="stroke:#16A34A;stroke-width:1;" x1="1414.7495" x2="1414.7495" y1="611.6899" y2="701.6274"/><line style="stroke:#16A34A;stroke-width:1;" x1="1414.7495" x2="1505.1616" y1="701.6274" y2="701.6274"/><polygon fill="#16A34A" points="1495.1616,697.6274,1505.1616,701.6274,1495.1616,705.6274,1499.1616,701.6274" style="stroke:#16A34A;stroke-width:1;"/><line style="stroke:#16A34A;stroke-width:1;" x1="1619.5737" x2="1619.5737" y1="679.6274" y2="701.6274"/><line style="stroke:#16A34A;stroke-width:1;" x1="1619.5737" x2="1529.1616" y1="701.6274" y2="701.6274"/><polygon fill="#16A34A" points="1539.1616,697.6274,1529.1616,701.6274,1539.1616,705.6274,1535.1616,701.6274" style="stroke:#16A34A;stroke-width:1;"/><line style="stroke:#16A34A;stroke-width:1;" x1="119.3301" x2="119.3301" y1="180.2295" y2="185.2295"/><line style="stroke:#16A34A;stroke-width:1;" x1="119.3301" x2="378.6475" y1="185.2295" y2="185.2295"/><line style="stroke:#16A34A;stroke-width:1;" x1="378.6475" x2="378.6475" y1="185.2295" y2="200.2295"/><polygon fill="#16A34A" points="374.6475,190.2295,378.6475,200.2295,382.6475,190.2295,378.6475,194.2295" style="stroke:#16A34A;stroke-width:1;"/><line style="stroke:#16A34A;stroke-width:1;" x1="378.6475" x2="378.6475" y1="288.167" y2="293.167"/><line style="stroke:#16A34A;stroke-width:1;" x1="378.6475" x2="918.9895" y1="293.167" y2="293.167"/><line style="stroke:#16A34A;stroke-width:1;" x1="918.9895" x2="918.9895" y1="293.167" y2="308.167"/><polygon fill="#16A34A" points="914.9895,298.167,918.9895,308.167,922.9895,298.167,918.9895,302.167" style="stroke:#16A34A;stroke-width:1;"/><line style="stroke:#16A34A;stroke-width:1;" x1="2027.5566" x2="2027.5566" y1="611.6899" y2="616.6899"/><line style="stroke:#16A34A;stroke-width:1;" x1="2027.5566" x2="1619.5737" y1="616.6899" y2="616.6899"/><line style="stroke:#16A34A;stroke-width:1;" x1="1619.5737" x2="1619.5737" y1="616.6899" y2="631.6899"/><polygon fill="#16A34A" points="1615.5737,621.6899,1619.5737,631.6899,1623.5737,621.6899,1619.5737,625.6899" style="stroke:#16A34A;stroke-width:1;"/><line style="stroke:#16A34A;stroke-width:1;" x1="1561.0337" x2="2027.5566" y1="531.7524" y2="531.7524"/><line style="stroke:#16A34A;stroke-width:1;" x1="2027.5566" x2="2027.5566" y1="531.7524" y2="563.7524"/><polygon fill="#16A34A" points="2023.5566,553.7524,2027.5566,563.7524,2031.5566,553.7524,2027.5566,557.7524" style="stroke:#16A34A;stroke-width:1;"/><line style="stroke:#16A34A;stroke-width:1;" x1="918.9895" x2="918.9895" y1="499.7524" y2="504.7524"/><line style="stroke:#16A34A;stroke-width:1;" x1="918.9895" x2="1517.1616" y1="504.7524" y2="504.7524"/><line style="stroke:#16A34A;stroke-width:1;" x1="1517.1616" x2="1517.1616" y1="504.7524" y2="519.7524"/><polygon fill="#16A34A" points="1513.1616,509.7524,1517.1616,519.7524,1521.1616,509.7524,1517.1616,513.7524" style="stroke:#16A34A;stroke-width:1;"/><line style="stroke:#16A34A;stroke-width:1;" x1="1517.1616" x2="1517.1616" y1="713.6274" y2="718.6274"/><line style="stroke:#16A34A;stroke-width:1;" x1="1517.1616" x2="1925.1445" y1="718.6274" y2="718.6274"/><line style="stroke:#16A34A;stroke-width:1;" x1="1925.1445" x2="1925.1445" y1="718.6274" y2="733.6274"/><polygon fill="#16A34A" points="1921.1445,723.6274,1925.1445,733.6274,1929.1445,723.6274,1925.1445,727.6274" style="stroke:#16A34A;stroke-width:1;"/><line style="stroke:#16A34A;stroke-width:1;" x1="1925.1445" x2="1925.1445" y1="781.5649" y2="786.5649"/><line style="stroke:#16A34A;stroke-width:1;" x1="1925.1445" x2="1517.1616" y1="786.5649" y2="786.5649"/><line style="stroke:#16A34A;stroke-width:1;" x1="1517.1616" x2="1517.1616" y1="786.5649" y2="801.5649"/><polygon fill="#16A34A" points="1513.1616,791.5649,1517.1616,801.5649,1521.1616,791.5649,1517.1616,795.5649" style="stroke:#16A34A;stroke-width:1;"/><line style="stroke:#16A34A;stroke-width:1;" x1="1517.1616" x2="1517.1616" y1="849.5024" y2="858.2329"/><line style="stroke:#16A34A;stroke-width:1;" x1="1517.1616" x2="918.9895" y1="858.2329" y2="858.2329"/><line style="stroke:#16A34A;stroke-width:1;" x1="918.9895" x2="918.9895" y1="858.2329" y2="873.2329"/><polygon fill="#16A34A" points="914.9895,863.2329,918.9895,873.2329,922.9895,863.2329,918.9895,867.2329" style="stroke:#16A34A;stroke-width:1;"/><line style="stroke:#16A34A;stroke-width:1;" x1="918.9895" x2="918.9895" y1="1499.9966" y2="1504.9966"/><line style="stroke:#16A34A;stroke-width:1;" x1="918.9895" x2="378.6475" y1="1504.9966" y2="1504.9966"/><line style="stroke:#16A34A;stroke-width:1;" x1="378.6475" x2="378.6475" y1="1504.9966" y2="1519.9966"/><polygon fill="#16A34A" points="374.6475,1509.9966,378.6475,1519.9966,382.6475,1509.9966,378.6475,1513.9966" style="stroke:#16A34A;stroke-width:1;"/><line style="stroke:#16A34A;stroke-width:1;" x1="378.6475" x2="378.6475" y1="1581.9028" y2="1586.9028"/><line style="stroke:#16A34A;stroke-width:1;" x1="378.6475" x2="119.3301" y1="1586.9028" y2="1586.9028"/><line style="stroke:#16A34A;stroke-width:1;" x1="119.3301" x2="119.3301" y1="1586.9028" y2="1601.9028"/><polygon fill="#16A34A" points="115.3301,1591.9028,119.3301,1601.9028,123.3301,1591.9028,119.3301,1595.9028" style="stroke:#16A34A;stroke-width:1;"/><text fill="#000000" font-family="sans-serif" font-size="18" lengthAdjust="spacing" textLength="111.8145" x="62.4229" y="83.0469">User / Agent</text><text fill="#000000" font-family="sans-serif" font-size="18" lengthAdjust="spacing" textLength="301.9746" x="226.6602" y="83.0469">CLI / MCP (cli.py / mcp_server.py)</text><text fill="#000000" font-family="sans-serif" font-size="18" lengthAdjust="spacing" textLength="107.6748" x="882.6521" y="83.0469">spec_diff.py</text><text fill="#000000" font-family="sans-serif" font-size="18" lengthAdjust="spacing" textLength="56.2676" x="1559.4412" y="83.0469">util.py</text><text fill="#000000" font-family="sans-serif" font-size="18" lengthAdjust="spacing" textLength="26.0068" x="1978.3872" y="83.0469">Git</text><?plantuml-src bLNTJXj75BxtKnmbKcLRs90GsiOMgepPXKYDWo1DBZ1QJNQFxQbdPxOpiu0L8-Mg3r3r6VfWF4dFcLqxna2buWlcv_nyvplVcVNIAmGblxW2KxZ_zZTSyE9OJYPmSIFpZX8QnxgviiZuOXTudV2wEqMDLdXCjF3o6fD2-7JMQZJSNEf2M9735v7EfzQKEXiQPIoyZ0Vysx0GARbAlu2l3O2ZH-PxyN7yXc-CpT3Mfwz-7Eo_6T3fm5fpitqO6-r78aSuHNMDNgQ23Y-yi7xRCbhdgO_kDe1fu_4PK75y7Fsq3Ie-U1lj7L68nl9bz7Dy4BrT_kRG4c43uial6uuXD7hdfOPs-m6dbuChk3owQhV7cYAbGYbuFpmZAxvjjy4Re_eXRXI_ZkFbyDTt59PDcgcItM91kpmj4aftZPRshMMZzqaecL5pe5ldseN2cjynzP0BEqVRR_I6dAhTVhAFxNRJg6m7DDwqGlAg5yllxIyMbEOSdI6QgqAemYbwHvf9R7KUB9FwdEF82JH71kZ0_T82FqCDpGMw5j7Petn9Ql9SUZY45wVHuFZ5M4kN48IaG9r9FQMBZxR4VWELG-1W7pHoj4V1s6ah67bHa4ae9extexrbwQKATN0ayW3fQ22kyL4qYbH8XGbV9an1ipNMzt_-1NMQmcXgigjnDRLXh-M9fBwJzvH029lEo1awdOcnkV27H0fyjJYv2nCrrakc3pgtGzZrUR5x_-sVFiTOGtmI1LbcqZw7PLtjVdGG7rHm0fZGhKxdZrAY1-Q6DZMCPZh3TCxKSXOuF0ptjGIsM5i3efWLdkyjh37L1sjCZJ1NLavddYewsI06Rxsbry057BjqARKdeO37l230jWzrDajtjjIEMsInQbIgKD19MNIvwZ2ypslsg9Gg2yXoKS0FWJTQZJMt0nZrS8NuZgU4DYM1fc4XMKySwQdKqcWm4vZZWekoMA3WWdeVnHmfuAq7CkK6ihACLWigXnDjAujSpZ6bXuJcy78KVQPN02YlNR3lMkIh08JvFmESH-y_V8gE7mUXhWezHVAkN49FXCMDtjJJhnQaWTNaxz1RKRWTUfD85Qr-y7tGGFuRLg5Shzw_wa9cKkSjpskJg9f8p8BaMhN5wouLGysJdiVDhGBjTucqjBIEvS0XTQLK5-xNVUKDap8JRXRkqRh7h3pWPNWw69riy3BMDzBFe285ClH2ge2alqf5WxFwNpKNRcQaFMZcXZJ7Cg2Kz5fK2LaaIl7RMkhwvSkIkaHQiJcn6iH3NLpNJkNKic3zjVxt6tz657kwiEXBgo6yss1AJtAbT45EEx0M1IrNFEoCzUNdmVdetUZaQWDogAk6yTGdZ1YzblHALfykAoU-FzPdrgH8le5HcHSASp8cBHdTfu-UAHh_0W00?></g></svg>